<svg width="20" height="20" viewBox="0 0 20 20" fill="none" xmlns="http://www.w3.org/2000/svg">
<path d="M10.35 1.3625C8.87812 1.38907 7.80312 1.82813 7.15 2.6875C6.37656 3.70625 6.23594 5.25782 6.725 7.2875C6.54531 7.50782 6.40938 7.84219 6.4625 8.2875C6.56719 9.16563 6.91875 9.52969 7.2 9.675C7.33594 10.3688 7.71875 11.1453 8.0875 11.5125V11.7C8.08906 11.9641 8.08437 12.2141 8.075 12.475C8.28437 12.9125 8.94844 13.6 10.4 13.6C11.8625 13.6 12.5437 12.8984 12.7375 12.4125C12.7297 12.1719 12.7359 11.9438 12.7375 11.7V11.5125C13.0953 11.1469 13.4641 10.3688 13.6 9.675C13.8891 9.53125 14.2312 9.16875 14.3375 8.2875C14.3906 7.85157 14.2625 7.52032 14.0875 7.3C14.3203 6.50782 14.7953 4.44532 13.975 3.125C13.6312 2.57188 13.1109 2.22344 12.425 2.0875C12.0469 1.61094 11.3219 1.3625 10.35 1.3625ZM13.1 13.3375C12.5953 13.9203 11.7031 14.4 10.4 14.4C9.07344 14.4 8.20625 13.9125 7.7125 13.35C7.33125 13.6703 6.72187 13.9109 6.05 14.175C4.4875 14.7891 2.54531 15.5484 2.4 17.975L2.375 18.4H18.425L18.4 17.975C18.2547 15.5484 16.3203 14.7891 14.7625 14.175C14.0875 13.9078 13.4797 13.6625 13.1 13.3375Z" fill="#8ED755"/>
</svg>
