<svg width="24" height="23" viewBox="0 0 24 23" fill="none" xmlns="http://www.w3.org/2000/svg">
<path d="M12.3073 18.5889C12.6556 18.5889 13.0033 18.4587 13.2649 18.1996L19.136 12.3885C19.6364 11.893 19.6364 11.1064 19.136 10.6109L13.2649 4.79978C12.7523 4.29283 11.9082 4.28042 11.3795 4.77108C10.8505 5.26175 10.8369 6.07098 11.3489 6.57794L16.3229 11.5L11.3489 16.4221C10.8369 16.929 10.8505 17.7379 11.3795 18.2289C11.6382 18.4692 11.9729 18.5889 12.3073 18.5889ZM5.82159 18.5889C6.16992 18.5889 6.51825 18.4587 6.77992 18.1996L12.651 12.3885C13.1513 11.893 13.1513 11.1064 12.651 10.6109L6.77992 4.79978C6.26725 4.29283 5.42317 4.28042 4.8945 4.77108C4.3655 5.26175 4.3519 6.07098 4.8639 6.57794L9.83721 11.5L4.8639 16.4221C4.3519 16.929 4.3655 17.7379 4.8945 18.2289C5.15317 18.4692 5.48725 18.5889 5.82159 18.5889Z" fill="#7C7C7C"/>
</svg>
