<svg width="50" height="50" viewBox="0 0 50 50" fill="currentColor" xmlns="http://www.w3.org/2000/svg">
  <path d="M11.383 24.09c0-.713-.641-1.3-1.43-1.3-.782 0-1.418.587-1.418 1.3 0 .72.636 1.302 1.419 1.302.788 0 1.429-.582 1.429-1.301M8.535 12.306c0 .746.636 1.364 1.419 1.364.788 0 1.429-.618 1.429-1.364 0-.757-.641-1.365-1.43-1.365-.782 0-1.418.608-1.418 1.365m5.302 26.887c0 .714.667 1.3 1.497 1.3.814 0 1.482-.586 1.482-1.3 0-.72-.668-1.302-1.482-1.302-.83 0-1.498.582-1.498 1.302"/>
  <path d="M22.89 16.971V2.287c-.17-.354-.727-1.333-2.03-1.888-1.523-.646-3.55-.509-6.05.417-1.466.55-2.733 1.26-3.757 2.116-.814.699-1.823 1.751-1.902 2.81a1.02 1.02 0 0 1-.436.76 1.2 1.2 0 0 1-.899.197c-.136-.016-3.677-.54-6.178 4.252C.38 13.353-.055 16.061.36 18.76c.294 1.857.888 3.332 1.681 4.343h4.46c.474-1.386 1.86-2.397 3.5-2.397 2.039 0 3.699 1.545 3.699 3.439 0 1.893-1.66 3.438-3.699 3.438-1.64 0-3.026-1.01-3.5-2.396H2.01c-.83.989-3.006 4.01-1.482 6.696.058.106 1.897 3.809 5.144 3.645.425-.032.83.175 1.045.518.21.355.19.783-.058 1.106-.12.164-2.989 4.136.048 6.548.042.032 2.574 2.084 4.839 1.117q.236-.096.473-.096c.226 0 .446.064.64.19.321.207.505.561.479.926-.021.302-.1 3.031 3.399 3.772.042.01.09.021.12.026.169.064 4.125 1.317 6.232-1.216V30.645h-6.363v5.279c1.477.444 2.564 1.724 2.564 3.258 0 1.894-1.66 3.438-3.688 3.438-2.038 0-3.699-1.544-3.699-3.438 0-1.534 1.088-2.814 2.58-3.258v-6.321c0-.577.494-1.043 1.12-1.043h7.486v-9.51h-5.322c-.615 0-1.12-.455-1.12-1.042v-4.634h-2.936c-.484 1.386-1.86 2.396-3.51 2.396-2.028 0-3.688-1.54-3.688-3.433C6.313 10.438 7.973 8.9 10 8.9c1.65 0 3.026 1.01 3.51 2.396h4.056c.63 0 1.119.466 1.119 1.042v4.634zm10.344 4.904c-.783 0-1.418.581-1.418 1.306 0 .714.635 1.301 1.418 1.301.788 0 1.424-.587 1.424-1.301 0-.725-.636-1.306-1.424-1.306m1.235 18.619c.82 0 1.487-.582 1.487-1.301 0-.72-.667-1.302-1.487-1.302-.825 0-1.492.582-1.492 1.302 0 .719.667 1.3 1.492 1.3m6.657-28.187c0-.757-.615-1.365-1.356-1.365a1.36 1.36 0 0 0-1.36 1.365c0 .746.609 1.364 1.36 1.364a1.37 1.37 0 0 0 1.356-1.364"/>
  <path d="M47.562 31.95c1.891-3.342-1.708-7.066-1.74-7.098a.99.99 0 0 1-.01-1.396c.951-1 1.624-2.634 1.95-4.697a12.64 12.64 0 0 0-1.277-7.813c-2.501-4.787-6.047-4.269-6.195-4.248a1.2 1.2 0 0 1-.893-.206 1.02 1.02 0 0 1-.425-.751c-.08-1.063-1.093-2.116-1.908-2.804-1.024-.862-2.29-1.57-3.756-2.12-2.517-.926-4.566-1.064-6.09-.408a3.98 3.98 0 0 0-1.996 1.873v9.008h10.834c.478-1.38 1.86-2.391 3.51-2.391 2.038 0 3.698 1.54 3.698 3.433 0 1.899-1.66 3.438-3.699 3.438-1.65 0-3.031-1.01-3.51-2.396H25.223V38.14h5.685c.467-1.386 1.85-2.396 3.499-2.396 2.038 0 3.699 1.539 3.699 3.438 0 1.893-1.66 3.438-3.7 3.438-1.649 0-3.03-1.02-3.498-2.396h-5.685v8.194c2.107 2.533 6.052 1.28 6.231 1.216q.056-.01.126-.026c3.61-.762 3.41-3.65 3.4-3.772-.027-.365.157-.72.478-.925a1.16 1.16 0 0 1 1.114-.096c2.264.958 4.796-1.084 4.823-1.105 3.058-2.428.189-6.395.063-6.56a.97.97 0 0 1-.053-1.105c.21-.344.615-.55 1.04-.518a4 4 0 0 0 1.146-.106V31.84H33.113c-.614 0-1.119-.46-1.119-1.042v-4.523c-1.481-.434-2.569-1.724-2.569-3.248 0-1.893 1.65-3.433 3.688-3.433 2.044 0 3.705 1.54 3.705 3.433 0 1.524-1.088 2.814-2.58 3.248v3.48h10.471c.63 0 1.124.472 1.124 1.043v3.396c1.12-1.01 1.713-2.222 1.729-2.243"/>
</svg>
