<svg width="50" height="50" viewBox="0 0 50 50" fill="currentColor" xmlns="http://www.w3.org/2000/svg">
  <path d="M49.416 12.111 31.884 29.643 49.416 47.18a5.36 5.36 0 0 0 .686-2.629v-29.81a5.35 5.35 0 0 0-.686-2.63M21.43 28.606c0 .005.005.005.005.005l1.927 1.933a2.466 2.466 0 0 0 3.48 0l1.931-1.933v-.005h.006l18.569-18.569a5.4 5.4 0 0 0-2.63-.685H5.49c-.957 0-1.853.249-2.629.685zm7.48 4.006a5.34 5.34 0 0 1-3.808 1.575 5.35 5.35 0 0 1-3.808-1.575l-.901-.895L2.86 49.254a5.34 5.34 0 0 0 2.63.686h39.228c.951 0 1.847-.25 2.629-.686L29.81 31.717zM.787 12.111a5.35 5.35 0 0 0-.685 2.63v29.81c0 .952.249 1.853.685 2.63l17.538-17.538z"/>
</svg>
