<svg width="50" height="50" viewBox="0 0 50 50" fill="currentColor" xmlns="http://www.w3.org/2000/svg">
  <path d="m47.1 15.625-1.44-5.933a4.06 4.06 0 0 0-1.396-2.21 3.86 3.86 0 0 0-2.426-.857H29.285a3.86 3.86 0 0 0-2.425.856 4.06 4.06 0 0 0-1.397 2.211L24.1 15.31h21.176c.62 0 1.237.107 1.824.315m-1.664 0H4.764a4.73 4.73 0 0 0-3.297 1.334A4.5 4.5 0 0 0 .1 20.176v25.898a4.5 4.5 0 0 0 1.367 3.217 4.73 4.73 0 0 0 3.297 1.334h40.672a4.73 4.73 0 0 0 3.297-1.334 4.5 4.5 0 0 0 1.367-3.217V20.176a4.5 4.5 0 0 0-1.367-3.217 4.73 4.73 0 0 0-3.297-1.334M17.12 30.826c0 .373-.152.731-.422.995a1.46 1.46 0 0 1-1.02.413H6.254a1.46 1.46 0 0 1-1.02-.413 1.4 1.4 0 0 1-.422-.995V23.93c0-.373.151-.73.422-.995a1.46 1.46 0 0 1 1.02-.412h9.423c.382 0 .75.148 1.02.412s.422.622.422.995zm15.638 12.902c-2.15 0-4.25-.622-6.037-1.787a10.66 10.66 0 0 1-4.002-4.758 10.37 10.37 0 0 1-.618-6.126 10.53 10.53 0 0 1 2.974-5.43 10.95 10.95 0 0 1 5.563-2.901c2.108-.41 4.292-.2 6.278.603a10.8 10.8 0 0 1 4.876 3.905 10.4 10.4 0 0 1 1.831 5.891 10.5 10.5 0 0 1-3.186 7.494 11.02 11.02 0 0 1-7.68 3.11M17.1 11.176a2.56 2.56 0 0 0-.742-1.804 2.52 2.52 0 0 0-1.79-.747H7.632c-.671 0-1.315.269-1.79.747a2.56 2.56 0 0 0-.741 1.804v3.449h12z"/>
</svg>
