<svg width="24" height="23" viewBox="0 0 24 23" fill="none" xmlns="http://www.w3.org/2000/svg">
<path d="M11.6927 4.41107C11.3444 4.41107 10.9967 4.54133 10.7351 4.80039L4.86396 10.6115C4.36363 11.107 4.36363 11.8936 4.86396 12.3891L10.7351 18.2002C11.2477 18.7072 12.0918 18.7196 12.6205 18.2289C13.1495 17.7382 13.1631 16.929 12.6511 16.4221L7.67711 11.5L12.6511 6.57793C13.1631 6.07097 13.1495 5.26206 12.6205 4.77107C12.3618 4.53085 12.0271 4.41107 11.6927 4.41107ZM18.1784 4.41107C17.8301 4.41107 17.4817 4.54133 17.2201 4.80039L11.349 10.6115C10.8487 11.107 10.8487 11.8936 11.349 12.3891L17.2201 18.2002C17.7327 18.7072 18.5768 18.7196 19.1055 18.2289C19.6345 17.7382 19.6481 16.929 19.1361 16.4221L14.1628 11.5L19.1361 6.57793C19.6481 6.07097 19.6345 5.26206 19.1055 4.77107C18.8468 4.53085 18.5127 4.41107 18.1784 4.41107Z" fill="#7C7C7C"/>
</svg>
