<svg width="50" height="50" viewBox="0 0 50 50" fill="currentColor" xmlns="http://www.w3.org/2000/svg">
  <path d="M2.254 39.425c0 1.964 1.506 3.558 3.367 3.558h13.684c.67 0 1.327.213 1.88.61l.939.667c.557.397 1.209.61 1.88.61h2.776a3.26 3.26 0 0 0 1.874-.605l.954-.677a3.24 3.24 0 0 1 1.875-.605h13.693c1.86 0 3.367-1.594 3.367-3.558v-26.6c0-1.563-1.195-2.825-2.673-2.825H4.927c-1.478 0-2.673 1.262-2.673 2.825zm1.78-25.7c0-1.017.78-1.842 1.743-1.842H45.02c.963 0 1.743.825 1.743 1.843v25.53c0 1.019-.78 1.843-1.743 1.843H5.777c-.964 0-1.743-.824-1.743-1.842zM50.398 47.69c0-1.557-1.194-2.82-2.667-2.82H32.276c-.822 0-1.63.255-2.314.739l-.567.402a4 4 0 0 1-2.313.738h-3.386c-.83 0-1.638-.26-2.328-.748l-.538-.382a4 4 0 0 0-2.328-.748H3.066c-1.473 0-2.668 1.262-2.668 2.82 0 1.562 1.2 2.825 2.678 2.825H47.72c1.478 0 2.677-1.263 2.677-2.825"/>
  <path d="M5.852 37.388c0 .677.52 1.227 1.157 1.227h36.892c.642 0 1.162-.55 1.162-1.227V14.55c0-.682-.52-1.232-1.162-1.232H7.01c-.637 0-1.157.55-1.157 1.232zm11.583-17.51c0-.518.397-.936.888-.936h21.4c.486 0 .882.418.882.937 0 .514-.396.936-.883.936h-21.4c-.49 0-.887-.422-.887-.936m0 7.493c0-.514.397-.936.888-.936h21.4c.486 0 .882.422.882.936 0 .52-.396.937-.883.937h-21.4c-.49 0-.887-.418-.887-.937m0 7.497c0-.519.397-.936.888-.936h21.4c.486 0 .882.417.882.936 0 .515-.396.937-.883.937h-21.4c-.49 0-.887-.422-.887-.937M10.31 18.001a.85.85 0 0 1 1.251 0l.019.015a.87.87 0 0 0 1.209.071l2.507-2.107a.853.853 0 0 1 1.242.148.97.97 0 0 1-.137 1.323l-3.575 3.003a1.11 1.11 0 0 1-1.534-.092l-.982-1.028a.98.98 0 0 1 0-1.333m0 7.492a.86.86 0 0 1 1.251 0l.019.02a.877.877 0 0 0 1.209.071l2.507-2.112a.853.853 0 0 1 1.242.148.97.97 0 0 1-.137 1.323l-3.575 3.003a1.104 1.104 0 0 1-1.534-.086l-.982-1.033a.98.98 0 0 1 0-1.334m0 7.497a.85.85 0 0 1 1.251 0l.019.016a.87.87 0 0 0 1.209.07l2.507-2.106a.853.853 0 0 1 1.242.142.977.977 0 0 1-.137 1.329l-3.575 3.003a1.11 1.11 0 0 1-1.534-.092l-.982-1.028a.98.98 0 0 1 0-1.334"/>
</svg>
